<svg id="Camada_1" data-name="Camada 1" xmlns="http://www.w3.org/2000/svg" viewBox="0 0 350.85 353.63"><defs><style>.cls-1{fill:#d2d9e3;}.cls-2{fill:#fca700;}.cls-3{fill:#fcfcfc;}.cls-4{fill:#f3f5f8;}.cls-5{fill:none;stroke:#000;stroke-miterlimit:10;}</style></defs><title>FalaAíLogo</title><path class="cls-1" d="M853.82,310.66H785.94a130.54,130.54,0,0,1,27.61,37.23h37.94a8.56,8.56,0,0,1,8.53,8.53v76a8.56,8.56,0,0,1-8.53,8.53H818.84a125.17,125.17,0,0,1-16.51,31h51.49A37.33,37.33,0,0,0,891,434.74V347.89A37.33,37.33,0,0,0,853.82,310.66Z" transform="translate(-540.19 -223.81)"/><path class="cls-2" d="M828.67,400.62c0-71.95-64.57-130.28-144.24-130.28S540.19,328.67,540.19,400.62c0,68.81,59.07,125.12,133.9,129.92l8.79,46.9C704.59,561.93,748,518.5,748,518.5s0-.35,0-.91C795.78,496.36,828.67,452,828.67,400.62Z" transform="translate(-540.19 -223.81)"/><path class="cls-3" d="M788.35,282.75a20.59,20.59,0,0,0-2.62.17,18.58,18.58,0,0,0-27-24.44,27.82,27.82,0,0,0-24.28-1.59,34.06,34.06,0,0,0-56.93-4.11,33.93,33.93,0,0,0-16.32-4.16,34.87,34.87,0,0,0-6.26.6A26.33,26.33,0,0,0,608,233.79a41.86,41.86,0,1,0,24.89,68,34.08,34.08,0,0,0,55.43,1.62,34.07,34.07,0,0,0,35.88-2,28.14,28.14,0,0,0,11.6,7.73,18.58,18.58,0,0,0,9.43,32.35,15.32,15.32,0,0,0-3.37,9.54,15.51,15.51,0,1,0,19.51-14.92A18.58,18.58,0,0,0,758,307.38a28.23,28.23,0,0,0,9.23-7.9,22,22,0,0,0-.6,5,21.72,21.72,0,1,0,21.72-21.71Z" transform="translate(-540.19 -223.81)"/><circle class="cls-4" cx="85.3" cy="178.36" r="13.96"/><circle class="cls-4" cx="144.24" cy="178.36" r="13.96"/><circle class="cls-4" cx="200.08" cy="178.36" r="13.96"/><path class="cls-5" d="M791.45,540.21" transform="translate(-540.19 -223.81)"/></svg>